<svg id="agua-y-cloacas" xmlns="http://www.w3.org/2000/svg" width="39.597" height="33.49" viewBox="0 0 39.597 33.49">
  <path id="Path_3445" data-name="Path 3445" d="M23.982,16.414c1.677,0,2.269.318,2.456,2.192a.7.7,0,0,0,.7.636h.077a.7.7,0,0,0,.636-.778C27.6,15.965,26.514,15,23.982,15a.707.707,0,1,0,0,1.414Z" transform="translate(-5.62 -9.453)" fill="#fff"/>
  <path id="Path_3446" data-name="Path 3446" d="M22.661,15.562a.7.7,0,0,0-.7-.7h-.307a.707.707,0,1,0,0,1.414h.307a.7.7,0,0,0,.7-.713Z" transform="translate(-5.844 -9.467)" fill="#fff"/>
  <path id="Path_3447" data-name="Path 3447" d="M26.88,34.249c-1.677,0-2.269-.318-2.456-2.192a.713.713,0,0,0-.778-.636.7.7,0,0,0-.636.778c.252,2.488,1.337,3.464,3.859,3.464a.707.707,0,1,0,0-1.414Z" transform="translate(-5.646 -7.873)" fill="#fff"/>
  <path id="Path_3448" data-name="Path 3448" d="M28.969,34.13h-.307a.707.707,0,1,0,0,1.414h.307a.707.707,0,1,0,0-1.414Z" transform="translate(-5.17 -7.612)" fill="#fff"/>
  <path id="Path_3449" data-name="Path 3449" d="M44.037,27.721h-.3a2.719,2.719,0,0,0-2.7,2.412H32.2v-.6a2.719,2.719,0,0,0,2.488-2.708v-.3A2.719,2.719,0,0,0,32.2,23.84V17.811a5.251,5.251,0,0,0-5.251-5.251H12.9a2.73,2.73,0,0,0-2.719-2.62H9.9a2.73,2.73,0,0,0-2.73,2.73V22.952a2.73,2.73,0,0,0,2.73,2.73h.3a2.73,2.73,0,0,0,2.719-2.62H21.75v.756H21.7a2.73,2.73,0,0,0-2.73,2.73v.3a2.73,2.73,0,0,0,2.73,2.73h0v5.832a5.251,5.251,0,0,0,5.251,5.251H40.967V40.7a2.73,2.73,0,0,0,2.73,2.73h.3a2.73,2.73,0,0,0,2.774-2.73V30.451a2.73,2.73,0,0,0-2.73-2.73ZM11.369,22.952a1.206,1.206,0,0,1-1.206,1.206H9.9a1.206,1.206,0,0,1-1.206-1.206V12.67A1.206,1.206,0,0,1,9.9,11.464h.3A1.206,1.206,0,0,1,11.4,12.67ZM12.892,21.3V14.325h14.1A3.486,3.486,0,0,1,30.465,17.8v6.007H23.5V21.286Zm7.564,5.536v-.3a1.206,1.206,0,0,1,1.206-1.206H31.945a1.206,1.206,0,0,1,1.206,1.206v.3a1.206,1.206,0,0,1-1.206,1.206H21.684a1.206,1.206,0,0,1-1.206-1.206Zm6.479,12.059a3.486,3.486,0,0,1-3.508-3.5V29.563h6.961V31.93H40.967v6.961ZM45.243,40.7a1.206,1.206,0,0,1-1.206,1.206h-.3A1.206,1.206,0,0,1,42.535,40.7V30.451a1.206,1.206,0,0,1,1.206-1.206h.3a1.206,1.206,0,0,1,1.206,1.206Z" transform="translate(-7.17 -9.94)" fill="#fff"/>
</svg>
