<svg id="arquitectura" xmlns="http://www.w3.org/2000/svg" width="40.365" height="33.49" viewBox="0 0 40.365 33.49">
  <circle id="Ellipse_279" data-name="Ellipse 279" cx="1.07" cy="1.07" r="1.07" transform="translate(18.668 7.574) rotate(-45)" fill="#fff"/>
  <path id="Path_3450" data-name="Path 3450" d="M15.39,18H15c-.29,0-.53.16-.53.37v1.1c0,.2.24.36.53.36h.35c.29,0,.53-.16.53-.36v-1.1C15.92,18.17,15.68,18,15.39,18Z" transform="translate(-5.035 -8.51)" fill="#fff"/>
  <path id="Path_3451" data-name="Path 3451" d="M12.94,21h-.35c-.29,0-.53.16-.53.36v1.1c0,.2.24.37.53.37h.35c.29,0,.53-.16.53-.37v-1.1C13.47,21.14,13.23,21,12.94,21Z" transform="translate(-5.035 -8.51)" fill="#fff"/>
  <path id="Path_3452" data-name="Path 3452" d="M44.56,40.28H41.33V28.2a2.55,2.55,0,0,0-2.55-2.55H33.21v-6.2a.84.84,0,0,0-.84-.84h-3.2V14a.84.84,0,0,0-.14-.46L25.91,8.88a.84.84,0,0,0-.69-.37.81.81,0,0,0-.7.36l-3.2,4.64a.84.84,0,0,0-.15.47v4.63H18.89V17.55a2.5,2.5,0,0,0-2.49-2.49H11.58a2.5,2.5,0,0,0-2.49,2.49v16.5h0v6.22H5.9A.865.865,0,1,0,5.9,42H44.56a.84.84,0,1,0,0-1.68Zm-4.91,0H10.77v-8.5h0V17.55a.82.82,0,0,1,.82-.82H16.4a.82.82,0,0,1,.82.82V28.29a.84.84,0,0,0,1.68,0v-8H22a.84.84,0,0,0,.84-.84V14.24l2.35-3.4,2.3,3.46v5.15a.84.84,0,0,0,.84.84h3.21V35a.84.84,0,0,0,1.68,0V27.32h5.57a.87.87,0,0,1,.87.87Z" transform="translate(-5.035 -8.51)" fill="#fff"/>
  <path id="Path_3453" data-name="Path 3453" d="M35.36,28.6H35c-.29,0-.53.16-.53.37v1.1c0,.2.24.37.53.37h.35c.29,0,.53-.16.53-.37V29C35.89,28.76,35.65,28.6,35.36,28.6Z" transform="translate(-5.035 -8.51)" fill="#fff"/>
  <path id="Path_3454" data-name="Path 3454" d="M37.81,28.6h-.35c-.29,0-.53.16-.53.37v1.1c0,.2.24.37.53.37h.35c.29,0,.53-.16.53-.37V29C38.33,28.76,38.1,28.6,37.81,28.6Z" transform="translate(-5.035 -8.51)" fill="#fff"/>
  <path id="Path_3455" data-name="Path 3455" d="M37.78,31.54h-.35c-.29,0-.53.16-.53.36V33c0,.2.24.36.53.36h.35c.29,0,.53-.16.53-.36V31.9C38.31,31.71,38.07,31.54,37.78,31.54Z" transform="translate(-5.035 -8.51)" fill="#fff"/>
</svg>
