<svg xmlns="http://www.w3.org/2000/svg" width="38.79" height="30.17" viewBox="0 0 38.79 30.17">
  <g id="ic-home-obras" transform="translate(-427.5 -253.198)">
    <path id="Path_62" data-name="Path 62" d="M444.74,253.2a2.153,2.153,0,0,0-2.155,2.155v6.862a.681.681,0,0,1-1.273.337L438.08,256.9a15.084,15.084,0,0,0-8.425,13.537v4.31h34.48v-4.472A15.086,15.086,0,0,0,455.71,256.9l-3.232,5.651a.682.682,0,0,1-1.273-.337v-6.862a2.153,2.153,0,0,0-2.155-2.155ZM428.618,276.9a1.115,1.115,0,0,0-1.118,1.118.971.971,0,0,0,.391.8c1.461,1.071,7.138,4.546,19,4.546s17.543-3.475,19.005-4.546a.982.982,0,0,0,.39-.8,1.115,1.115,0,0,0-1.118-1.118Z" fill="#50b7b2"/>
  </g>
</svg>
