<svg xmlns="http://www.w3.org/2000/svg" width="38.794" height="34.489" viewBox="0 0 38.794 34.489">
  <path id="ic-home-proy" d="M649.376,252.852a4.315,4.315,0,0,0-4.311,4.311V283.03a4.315,4.315,0,0,0,4.311,4.311h17.245a4.315,4.315,0,0,0,4.311-4.311v-1.3a4.1,4.1,0,0,1-.552.182l-4.049,1.01a3.853,3.853,0,0,1-.606.1c-.061.006-.121.013-.182.013h-4.311a1.071,1.071,0,0,1-.963-.593l-.593-1.192a.664.664,0,0,0-.593-.37.656.656,0,0,0-.593.37l-.593,1.192a1.076,1.076,0,0,1-1.993-.168l-1.139-3.752-.66,2.209a3.236,3.236,0,0,1-3.1,2.3h-.552a1.077,1.077,0,1,1,0-2.155h.552a1.069,1.069,0,0,0,1.031-.768l1-3.335a1.8,1.8,0,0,1,3.449,0l.781,2.6a2.822,2.822,0,0,1,4.331.91l.3.593h.6A3.276,3.276,0,0,1,662.4,279l1.01-4.049a4.282,4.282,0,0,1,1.132-2l6.386-6.386V263.63H662.31a2.153,2.153,0,0,1-2.156-2.156v-8.622Zm12.934,0v8.622h8.622Zm19.791,9.41a2.7,2.7,0,0,0-3.813,0l-1.98,1.981,4.782,4.783,1.981-1.981a2.7,2.7,0,0,0,0-3.813l-.97-.97Zm-16.026,12.213a2.141,2.141,0,0,0-.566,1l-1.01,4.048a1.077,1.077,0,0,0,1.307,1.307l4.048-1.01a2.175,2.175,0,0,0,1-.566l8.7-8.71-4.783-4.783Z" transform="translate(-645.065 -252.852)" fill="#50b7b2"/>
</svg>
