<svg version="1.1" xmlns="http://www.w3.org/2000/svg" xmlns:xlink="http://www.w3.org/1999/xlink" width="800px" height="800px" viewBox="0,0,256,256"><g fill="#ffffff" fill-rule="nonzero" stroke="none" stroke-width="1" stroke-linecap="butt" stroke-linejoin="miter" stroke-miterlimit="10" stroke-dasharray="" stroke-dashoffset="0" font-family="none" font-weight="none" font-size="none" text-anchor="none" style="mix-blend-mode: normal"><g transform="translate(0,0.00009) scale(0.50386,0.50386)"><g><g><path d="M446.05,4.225c-5.5,-5.5 -14.4,-5.6 -20,-0.1c-5.5,5.5 -5.6,14.4 -0.1,20c71.8,72.5 71.8,190.4 0,262.8c-5.5,5.5 -5.4,14.4 0.1,20c7.6,7.6 17.2,2.7 20,-0.1c82.7,-83.5 82.7,-219.2 0,-302.6z"></path></g></g><g><g><path d="M392.95,43.725c-5.5,-5.5 -14.4,-5.6 -20,-0.1c-5.5,5.5 -5.6,14.4 -0.1,20c50.2,50.7 50.2,133.2 0,183.9c-5.5,5.5 -5.4,14.4 0.1,20c8.2,8.2 17.2,2.7 20,-0.1c61.1,-61.8 61.1,-162.1 0,-223.7z"></path></g></g><g><g><path d="M339.95,83.225c-5.5,-5.5 -14.4,-5.6 -20,-0.1c-5.5,5.5 -5.6,14.4 -0.1,20c28.6,28.8 28.6,75.9 0,104.8c-5.5,5.5 -5.4,14.4 0.1,20c6.4,6.4 17.2,2.7 20,-0.1c39.5,-39.9 39.5,-104.8 0,-144.6z"></path></g></g><g><g><path d="M82.05,24.125c5.5,-5.5 5.4,-14.5 -0.1,-20c-5.5,-5.5 -14.5,-5.4 -20,0.1c-82.6,83.4 -82.6,219.1 0,302.6c2.8,2.8 12.4,7.6 20,0.1c5.5,-5.5 5.6,-14.4 0.1,-20c-71.8,-72.5 -71.8,-190.4 0,-262.8z"></path></g></g><g><g><path d="M135.15,63.525c5.5,-5.5 5.4,-14.5 -0.1,-20c-5.5,-5.5 -14.5,-5.4 -20,0.1c-61.1,61.6 -61.1,162 0,223.6c2.8,2.9 11.8,8.4 20,0.2c5.5,-5.5 5.6,-14.4 0.1,-20c-50.2,-50.7 -50.2,-133.2 0,-183.9z"></path></g></g><g><g><path d="M188.35,103.025c5.5,-5.5 5.4,-14.5 -0.1,-20c-5.5,-5.5 -14.5,-5.4 -20,0.1c-39.5,39.9 -39.5,104.8 0,144.7c2.8,2.8 13.5,6.5 20,0.1c5.5,-5.5 5.6,-14.4 0.1,-20c-28.7,-28.9 -28.7,-76 0,-104.9z"></path></g></g><g><g><path d="M375.35,479.825h-29.5l-74.4,-281.3c16.9,-6.9 28.8,-23.6 28.8,-43.1c0,-25.6 -20.7,-46.5 -46.2,-46.5c-25.5,0 -46.2,20.9 -46.2,46.5c0,19.4 11.9,36.1 28.8,43.1l-74.4,281.3h-29.5c-7.8,0 -14.1,6.3 -14.1,14.1c0,7.8 6.3,14.1 14.1,14.1h242.7c7.8,0 14.1,-6.3 14.1,-14.1c0,-7.8 -6.4,-14.1 -14.2,-14.1zM236.05,155.525c0,-10.1 8.1,-18.3 18,-18.3c9.9,0 18,8.2 18,18.3c0,10.1 -8.1,18.3 -18,18.3c-9.9,0 -18,-8.2 -18,-18.3zM191.35,479.825l62.7,-236.8l62.7,236.8z"></path></g></g></g></g></svg>