<svg version="1.1" xmlns="http://www.w3.org/2000/svg" xmlns:xlink="http://www.w3.org/1999/xlink" width="32px" height="32px" viewBox="0,0,256,256"><g fill="#50b7b2" fill-rule="nonzero" stroke="none" stroke-width="1" stroke-linecap="butt" stroke-linejoin="miter" stroke-miterlimit="10" stroke-dasharray="" stroke-dashoffset="0" font-family="none" font-weight="none" font-size="none" text-anchor="none" style="mix-blend-mode: normal"><g transform="translate(-12.1,-7.7) scale(8,8)"><path d="M29.7,18.3c-3.1,-3.1 -8.2,-3.1 -11.3,0c-3.1,3.1 -3.1,8.2 0,11.3c3.1,3.1 8.2,3.1 11.3,0c3.1,-3.1 3.1,-8.1 0,-11.3zM27.7,22.7l-4,4c-0.2,0.2 -0.4,0.3 -0.7,0.3c-0.3,0 -0.5,-0.1 -0.7,-0.3l-2,-2c-0.4,-0.4 -0.4,-1 0,-1.4c0.4,-0.4 1,-0.4 1.4,0l1.3,1.3l3.3,-3.3c0.4,-0.4 1,-0.4 1.4,0c0.4,0.4 0.4,1 0,1.4z"></path><g><path d="M17,2.6v5.4h5.4z"></path><path d="M20.5,10h-4.5c-0.6,0 -1,-0.4 -1,-1v-7h-11c-0.6,0 -1,0.4 -1,1v26c0,0.6 0.4,1 1,1h12c-1.3,-1.7 -2,-3.7 -2,-6c0,-5.2 4,-9.4 9,-9.9v-1.6c0,-1.4 -1.1,-2.5 -2.5,-2.5z"></path></g></g></g></svg>