<svg version="1.1" xmlns="http://www.w3.org/2000/svg" xmlns:xlink="http://www.w3.org/1999/xlink" width="200" height="200" viewBox="0,0,256,256"><g fill="#ffffff" fill-rule="nonzero" stroke="none" stroke-width="1" stroke-linecap="butt" stroke-linejoin="miter" stroke-miterlimit="10" stroke-dasharray="" stroke-dashoffset="0" font-family="none" font-weight="none" font-size="none" text-anchor="none" style="mix-blend-mode: normal"><g transform="translate(8,2.875) scale(0.125,0.125)"><path d="M1188,794c30,-28.66667 53,-61.66667 69,-99c16,-37.33333 24.33333,-77 25,-119c0,-42 -8,-81.66667 -24,-119c-16,-37.33333 -39.33333,-70.33333 -70,-99l89,-92c42.66667,41.33333 75.33333,88.33333 98,141c22.66667,52.66667 34.33333,109 35,169c0,59.33333 -11.33333,115.33333 -34,168c-22.66667,52.66667 -55.66667,100 -99,142zM1455,82c33.33333,32 63,67 89,105c26,38 48.33333,78 67,120c18.66667,42 32.33333,85.66667 41,131c8.66667,45.33333 13.33333,91.33333 14,138c0,46.66667 -4.66667,92.66667 -14,138c-9.33333,45.33333 -23,89 -41,131c-18,42 -40,82 -66,120c-26,38 -56,73 -90,105l-89,-92c55.33333,-53.33333 97.66667,-114.33333 127,-183c29.33333,-68.66667 44.33333,-141.66667 45,-219c0,-76.66667 -14.66667,-149.33333 -44,-218c-29.33333,-68.66667 -72,-130 -128,-184zM643,886c-42.66667,-41.33333 -75.33333,-88.33333 -98,-141c-22.66667,-52.66667 -34.33333,-109 -35,-169c0,-59.33333 11.33333,-115.33333 34,-168c22.66667,-52.66667 55.66667,-100 99,-142l89,92c-30,28.66667 -53,61.66667 -69,99c-16,37.33333 -24.33333,77 -25,119c0,42 8,81.66667 24,119c16,37.33333 39.33333,70.33333 70,99zM465,1070c-33.33333,-32 -63,-67 -89,-105c-26,-38 -48.33333,-78 -67,-120c-18.66667,-42 -32.33333,-85.66667 -41,-131c-8.66667,-45.33333 -13.33333,-91.33333 -14,-138c0,-46.66667 4.66667,-92.66667 14,-138c9.33333,-45.33333 23,-89 41,-131c18,-42 40,-82 66,-120c26,-38 56,-73 90,-105l89,92c-55.33333,53.33333 -97.66667,114.33333 -127,183c-29.33333,68.66667 -44.33333,141.66667 -45,219c0,76.66667 14.66667,149.33333 44,218c29.33333,68.66667 72,130 128,184zM1152,576c0,30 -6.33333,58 -19,84c-12.66667,26 -31,48.33333 -55,67l397,1193h-134l-86,-256h-590l-86,256h-134l397,-1193c-23.33333,-18 -41.33333,-40 -54,-66c-12.66667,-26 -19.33333,-54.33333 -20,-85c0,-26.66667 5,-51.66667 15,-75c10,-23.33333 23.66667,-43.66667 41,-61c17.33333,-17.33333 37.66667,-31 61,-41c23.33333,-10 48.33333,-15 75,-15c26.66667,0 51.66667,5 75,15c23.33333,10 43.66667,23.66667 61,41c17.33333,17.33333 31,37.66667 41,61c10,23.33333 15,48.33333 15,75zM960,512c-17.33333,0 -32.33333,6.33333 -45,19c-12.66667,12.66667 -19,27.66667 -19,45c0,17.33333 6.33333,32.33333 19,45c12.66667,12.66667 27.66667,19 45,19c17.33333,0 32.33333,-6.33333 45,-19c12.66667,-12.66667 19,-27.66667 19,-45c0,-17.33333 -6.33333,-32.33333 -19,-45c-12.66667,-12.66667 -27.66667,-19 -45,-19zM960,778l-125,374h250zM1213,1536l-86,-256h-334l-86,256z"></path></g></g></svg>