<svg id="obras-viales" xmlns="http://www.w3.org/2000/svg" width="42.824" height="34.646" viewBox="0 0 42.824 34.646">
  <path id="Path_3459" data-name="Path 3459" d="M8.889,45.636a1.22,1.22,0,0,1-1.11-1.719L22.145,11.77a1.223,1.223,0,0,1,2.232,1L10,44.916a1.22,1.22,0,0,1-1.11.72Z" transform="translate(-7.672 -10.99)" fill="#fff"/>
  <path id="Path_3460" data-name="Path 3460" d="M44.6,45.638a1.22,1.22,0,0,1-1.11-.72L29.109,12.76a1.223,1.223,0,0,1,2.232-1L45.707,43.918a1.219,1.219,0,0,1-1.11,1.719Z" transform="translate(-2.99 -10.992)" fill="#fff"/>
  <path id="Path_3461" data-name="Path 3461" d="M25.45,41.886a1.22,1.22,0,0,1-1.22-1.22V28.85a1.22,1.22,0,0,1,2.439,0v11.8a1.22,1.22,0,0,1-1.22,1.232Z" transform="translate(-4.037 -7.35)" fill="#fff"/>
  <path id="Path_3462" data-name="Path 3462" d="M25.45,26.44a1.22,1.22,0,0,1-1.22-1.219V18.88a1.22,1.22,0,0,1,2.439,0v6.341A1.22,1.22,0,0,1,25.45,26.44Z" transform="translate(-4.037 -9.538)" fill="#fff"/>
  <path id="Path_3463" data-name="Path 3463" d="M25.45,16.537a1.22,1.22,0,0,1-1.22-1.22v-3.1a1.22,1.22,0,0,1,2.439,0v3.037a1.22,1.22,0,0,1-1.22,1.28Z" transform="translate(-4.037 -11)" fill="#fff"/>
</svg>
