<?xml version="1.0" encoding="utf-8"?>
<!-- Generator: Adobe Illustrator 25.4.1, SVG Export Plug-In . SVG Version: 6.00 Build 0)  -->
<svg version="1.1" id="Layer_1" xmlns="http://www.w3.org/2000/svg" xmlns:xlink="http://www.w3.org/1999/xlink" x="0px" y="0px"
	 viewBox="0 0 50.5 50.5" style="enable-background:new 0 0 50.5 50.5;" xml:space="preserve">
<style type="text/css">
	.st0{fill:#FFFFFF;}
</style>
<g>
	<path class="st0" d="M25.8,13.7c-0.3-0.2-0.7-0.2-0.9,0l-12.1,8.8c-0.2,0.2-0.3,0.4-0.3,0.6v17.5c0,0.5,0.4,0.8,0.8,0.8h24.2
		c0.5,0,0.8-0.4,0.8-0.8V23.2c0-0.3-0.1-0.5-0.3-0.6L25.8,13.7z M29.2,39.9h-7.7V29.1h7.8L29.2,39.9z M36.7,39.9h-5.8V28.3
		c0-0.5-0.4-0.8-0.8-0.8h-9.3c-0.5,0-0.8,0.4-0.8,0.8v11.6h-6V23.6l11.3-8.2l11.3,8.2L36.7,39.9z"/>
	<path class="st0" d="M41.1,20.2l-15.2-11c-0.3-0.2-0.7-0.2-1,0l-7.2,5.2V9.9c0-0.5-0.4-0.9-0.9-0.9s-0.9,0.4-0.9,0.9l0,0v5.5
		c0,0.1,0,0.2,0.1,0.2l-6.3,4.5c-0.4,0.3-0.6,0.8-0.3,1.2c0.3,0.4,0.8,0.6,1.2,0.3l0.1-0.1L25.4,11L40,21.6c0.4,0.3,0.9,0.3,1.3-0.1
		c0.3-0.4,0.3-0.9-0.1-1.3H41.1L41.1,20.2z"/>
</g>
</svg>
